<svg xmlns="http://www.w3.org/2000/svg" viewBox="0 0 64 64" aria-labelledby="title"
aria-describedby="desc" role="img" xmlns:xlink="http://www.w3.org/1999/xlink">
  <title>Men</title>
  <desc>A solid styled icon from Orion Icon Library.</desc>
  <path data-name="layer1"
  d="M50 51c-10-1.9-10-5-10-7v-1.2a18.2 18.2 0 0 0 5.2-8.8h.1c3 0 3.8-6.3 3.8-7.3s.1-4.7-3-4.7c6.5-18-11-25.2-24.2-16-5.4 0-5.9 8-3.9 16-3.1 0-3 3.8-3 4.7s.7 7.3 3.8 7.3a18.2 18.2 0 0 0 5.2 8.8V44c0 2 0 5.2-10 7A14.5 14.5 0 0 0 2.4 62h59.2A14.7 14.7 0 0 0 50 51z"
  fill="white"></path>
</svg>