<svg xmlns="http://www.w3.org/2000/svg" viewBox="0 0 64 64" aria-labelledby="title"
aria-describedby="desc" role="img" xmlns:xlink="http://www.w3.org/1999/xlink">
  <title>Student</title>
  <desc>A solid styled icon from Orion Icon Library.</desc>
  <path data-name="layer1"
  d="M50 49c-8.4-1.6-8.4-3.4-8.4-4.6v-2.8a20 20 0 0 0 4.7-7.9c3.1-1 4.2-5.1 4.2-7v-.3c0-1.1.2-3.5-1.3-5.1a4 4 0 0 0-1.2-.9v-9.8L60.4 8a2 2 0 0 0-.1-4l-28-4h-.6l-28 4a2 2 0 0 0-.1 4H4v22a2 2 0 1 0 4 0V8.9l8 1.7v9.8c-2.3 1-3.3 3.7-3.3 6.3s1.1 6 4.2 7a20 20 0 0 0 4.7 7.8v3c0 .2.1 2.9-8.4 4.5C2.8 51 0 58.4 0 62v2h64v-2c0-.4-.2-10.3-14-13zm-24.4-4.6a2 2 0 0 0 1-3.7 15.3 15.3 0 0 1-6.3-9.1L20 30h-1.6c-1.2 0-1.8-2.6-1.8-3.3S16.7 24 18 24h2v-5.7L32 20l12-1.7V24h2.3c.2.2.3.7.3 2.2v.5c0 .2-.7 3.3-1.9 3.3h-1.5l-.4 1.5a15.3 15.3 0 0 1-6.3 9.1 2 2 0 0 0 1 3.7c-.1 3 1 5.3 5.9 7.1L32 59.5l-11.6-8.3c4.3-1.7 5.3-4 5.2-6.8z"
  fill="white"></path>
</svg>