<svg xmlns="http://www.w3.org/2000/svg" viewBox="0 0 64 64" aria-labelledby="title"
aria-describedby="desc" role="img" xmlns:xlink="http://www.w3.org/1999/xlink">
  <title>Contact Card</title>
  <desc>A solid styled icon from Orion Icon Library.</desc>
  <path data-name="layer1"
  d="M52 10v1a5 5 0 1 1-10 0v-1H22v1a5 5 0 1 1-10 0v-1H2v44h60V10zM30 46H10v-1.7A10.1 10.1 0 0 1 20 34a6 6 0 1 1 6-6 6 6 0 0 1-6 6 10.1 10.1 0 0 1 10 10.3zm16-2h-8a2 2 0 0 1 0-4h8a2 2 0 0 1 0 4zm8-8H38a2 2 0 0 1 0-4h16a2 2 0 0 1 0 4zm0-8H38a2 2 0 0 1 0-4h16a2 2 0 0 1 0 4z"
  fill="white"></path>
</svg>